<svg xmlns="http://www.w3.org/2000/svg" viewBox="0 0 1810 601" enable-background="new 0 0 1810 601"><style type="text/css">.st0{opacity:0.8696;} .st1{fill-opacity:5.069633e-02;}</style><title>video-bg</title><desc>Created with Sketch.</desc><g id="video-bg" class="st0"><path id="Combined-Shape" class="st1" d="M188.3 451.9l-60.2 24.5-2.9-7 60.2-24.5 2.9 7zm19.4 47.6l-60.2 24.5-2.9-7 60.2-24.5 2.9 7zm-29.6-15.6l-40.3 16.4-2.9-7 40.3-16.4 2.9 7z"/><path id="Combined-Shape_1_" class="st1" d="M1505.6 418.1l63.8-4.6.5 7.1-63.8 4.6-.5-7.1zm-3.6-49.7l63.8-4.6.5 7.1-63.8 4.6-.5-7.1zm33.7 22.5l31.9-2.3.5 7.1-31.9 2.3-.5-7.1zm-10.3 4.4l-20.5 12.2-1.5-21.3 22 9.1z"/><path id="Rectangle-21-Copy" class="st1" d="M298.3 319.2c.9 9 8.9 15.5 17.9 14.6 9-.9 15.5-8.9 14.6-17.9-.9-9-8.9-15.5-17.9-14.6-9 .9-15.6 8.9-14.6 17.9zm-8.2.8c-1.4-13.5 8.4-25.5 21.9-26.9s25.5 8.4 26.9 21.9-8.4 25.5-21.9 26.9-25.5-8.5-26.9-21.9z"/><path id="Combined-Shape_2_" class="st1" d="M158.7 173.7l38.8 15.2 6.2-15.8-38.8-15.2 6.2-15.8-40.3 11.6 21.8 35.9 6.1-15.9zm73.6 19.6l-40.9 11.4 18.6-47.5 22.3 36.1z"/><path id="Aa" class="st1" d="M489.6 205.4l-7-10.7-16.1 3.8-1.4 12.7-7.3 1.7 5.9-46.1 7.5-1.8 25.7 38.7-7.3 1.7zm-10.2-16.3l-6.6-10.6c-.5-.7-1.2-1.8-2.1-3.4s-1.5-2.7-1.9-3.4c0 2.5-.1 5.3-.5 8.3l-1.2 11.9 12.3-2.8zm41.6 8.9l-2-3.4h-.2c-.9 1.9-1.9 3.3-3 4.1s-2.7 1.5-4.7 2c-2.6.6-4.7.4-6.5-.7-1.8-1-2.9-2.8-3.5-5.4-.6-2.7-.1-5 1.6-6.8 1.7-1.8 4.6-3.3 8.6-4.4l4.5-1.2-.3-1.4c-.4-1.7-1.1-2.8-2-3.5s-2.3-.8-3.9-.4c-1.3.3-2.6.8-3.7 1.5s-2.2 1.4-3.2 2.2l-2.7-3.5c1.2-1.1 2.7-2 4.3-2.8 1.6-.8 3.1-1.3 4.6-1.7 3.3-.8 6-.6 8 .4 2 1.1 3.4 3.1 4.1 6.2l4.1 17.6-4.1 1.2zm-9.1-1.8c2-.5 3.5-1.4 4.5-2.8s1.2-3.1.7-5.2l-.5-2.3-3.3.9c-2.6.7-4.4 1.6-5.4 2.6-1 1.1-1.3 2.4-.9 4 .3 1.2.8 2 1.7 2.5.7.5 1.8.6 3.2.3z"/><path id="Combined-Shape_3_" class="st1" d="M1476.4 107.5l17.8 42.9c2 4.9 2.7 9.6 2.1 14.2-.6 4.6-2.6 8.7-5.8 12.4-3.2 3.7-7.6 6.6-13.2 8.9-8.4 3.5-15.8 4-22.2 1.5s-11.2-7.5-14.4-15.1l-17.7-42.8 13.7-5.7 16.9 40.6c2.1 5.1 4.7 8.4 7.7 10 3 1.6 6.8 1.4 11.5-.6 4.5-1.9 7.3-4.4 8.3-7.7 1-3.2.5-7.4-1.7-12.6l-16.8-40.5 13.8-5.5zm-28.8 103.4l68.3-28.4 4.8 11.6-68.3 28.4-4.8-11.6z"/><path id="Rectangle-21-Copy-Copy" class="st1" d="M1635.9 573.5c1.1 10.8 10.7 18.7 21.6 17.6s18.7-10.7 17.6-21.6-10.7-18.7-21.6-17.6-18.7 10.8-17.6 21.6zm-9.7 1c-1.6-16.2 10.2-30.7 26.4-32.3 16.2-1.6 30.7 10.2 32.3 26.4s-10.2 30.7-26.4 32.3c-16.2 1.6-30.7-10.2-32.3-26.4z"/><path id="Rectangle-21-Copy-Copy-2" class="st1" d="M614.4 245.1c.6 5.9 5.8 10.1 11.7 9.5 5.9-.6 10.1-5.8 9.5-11.7-.6-5.9-5.8-10.1-11.7-9.5s-10.1 5.8-9.5 11.7zm-5.3.5c-.9-8.8 5.5-16.6 14.3-17.5s16.6 5.5 17.5 14.3c.9 8.8-5.5 16.6-14.3 17.5-8.8.9-16.6-5.5-17.5-14.3z"/><path id="Combined-Shape_4_" class="st1" d="M1645 225.3l22.6-11.1 1.6 3.2-22.6 11.1-1.6-3.2zm-12.5-25.5l22.6-11.1 1.6 3.2-22.6 11.1-1.6-3.2zm5.5 11.2l22.6-11.1 1.6 3.2-22.6 11.1-1.6-3.2zm-2.7 19.1l3.2-1.6 1.6 3.2-3.2 1.6-1.6-3.2zm-12.5-25.5l3.2-1.6 1.6 3.2-3.2 1.6-1.6-3.2zm5.5 11.1l3.2-1.6 1.6 3.2-3.2 1.6-1.6-3.2z"/><path id="Rectangle-21-Copy-3" class="st1" d="M1275.2 213.3c-6.5-4.2-15.1-2.3-19.3 4.2-4.2 6.5-2.3 15.1 4.2 19.3 6.5 4.2 15.1 2.3 19.3-4.2 4.1-6.5 2.2-15.1-4.2-19.3zm7.2-11.9c12.8 8.2 16.4 25.3 8.2 38-8.2 12.8-25.3 16.4-38 8.2-12.8-8.2-16.4-25.3-8.2-38 8.2-12.8 25.2-16.4 38-8.2z"/></g></svg>